<svg xmlns="http://www.w3.org/2000/svg" version="1.1" xmlns:xlink="http://www.w3.org/1999/xlink" xmlns:svgjs="http://svgjs.dev/svgjs" viewBox="0 0 800 800" width="800" height="800"><g stroke-width="2" stroke="hsla(55, 60%, 38%, 1.00)" fill="none"><line x1="0" y1="0" x2="200" y2="200"></line><line x1="200" y1="0" x2="400" y2="200"></line><line x1="400" y1="0" x2="600" y2="200"></line><line x1="600" y1="0" x2="800" y2="200"></line><line x1="800" y1="0" x2="1000" y2="200"></line><line x1="0" y1="133.33333333333334" x2="200" y2="333.33333333333337"></line><line x1="200" y1="133.33333333333334" x2="400" y2="333.33333333333337"></line><line x1="400" y1="133.33333333333334" x2="600" y2="333.33333333333337"></line><line x1="600" y1="133.33333333333334" x2="800" y2="333.33333333333337"></line><line x1="800" y1="133.33333333333334" x2="1000" y2="333.33333333333337"></line><line x1="0" y1="266.6666666666667" x2="200" y2="466.6666666666667"></line><line x1="200" y1="266.6666666666667" x2="400" y2="466.6666666666667"></line><line x1="400" y1="266.6666666666667" x2="600" y2="466.6666666666667"></line><line x1="600" y1="266.6666666666667" x2="800" y2="466.6666666666667"></line><line x1="800" y1="266.6666666666667" x2="1000" y2="466.6666666666667"></line><line x1="0" y1="400" x2="200" y2="600"></line><line x1="200" y1="400" x2="400" y2="600"></line><line x1="400" y1="400" x2="600" y2="600"></line><line x1="600" y1="400" x2="800" y2="600"></line><line x1="800" y1="400" x2="1000" y2="600"></line><line x1="0" y1="533.3333333333334" x2="200" y2="733.3333333333334"></line><line x1="200" y1="533.3333333333334" x2="400" y2="733.3333333333334"></line><line x1="400" y1="533.3333333333334" x2="600" y2="733.3333333333334"></line><line x1="600" y1="533.3333333333334" x2="800" y2="733.3333333333334"></line><line x1="800" y1="533.3333333333334" x2="1000" y2="733.3333333333334"></line><line x1="0" y1="666.6666666666667" x2="200" y2="866.6666666666667"></line><line x1="200" y1="666.6666666666667" x2="400" y2="866.6666666666667"></line><line x1="400" y1="666.6666666666667" x2="600" y2="866.6666666666667"></line><line x1="600" y1="666.6666666666667" x2="800" y2="866.6666666666667"></line><line x1="800" y1="666.6666666666667" x2="1000" y2="866.6666666666667"></line><line x1="0" y1="800.0000000000001" x2="200" y2="1000.0000000000001"></line><line x1="200" y1="800.0000000000001" x2="400" y2="1000.0000000000001"></line><line x1="400" y1="800.0000000000001" x2="600" y2="1000.0000000000001"></line><line x1="600" y1="800.0000000000001" x2="800" y2="1000.0000000000001"></line><line x1="800" y1="800.0000000000001" x2="1000" y2="1000.0000000000001"></line></g></svg>