<svg xmlns="http://www.w3.org/2000/svg" version="1.1" xmlns:xlink="http://www.w3.org/1999/xlink" xmlns:svgjs="http://svgjs.dev/svgjs" viewBox="0 0 800 800"><g stroke="hsl(50, 57%, 43%)" fill="none" stroke-linecap="square"><circle r="500.5" cx="400" cy="400" stroke-width="13" stroke-dasharray="0 3145" stroke-dashoffset="56" opacity="0.05"></circle><circle r="462" cx="400" cy="400" stroke-width="13" stroke-dasharray="191 2903" transform="rotate(30, 400, 400)" stroke-dashoffset="56" opacity="0.13"></circle><circle r="423.5" cx="400" cy="400" stroke-width="13" stroke-dasharray="350 2661" transform="rotate(60, 400, 400)" stroke-dashoffset="56" opacity="0.21"></circle><circle r="385" cx="400" cy="400" stroke-width="13" stroke-dasharray="478 2419" transform="rotate(90, 400, 400)" stroke-dashoffset="56" opacity="0.29"></circle><circle r="346.5" cx="400" cy="400" stroke-width="13" stroke-dasharray="573 2177" transform="rotate(120, 400, 400)" stroke-dashoffset="56" opacity="0.37"></circle><circle r="308" cx="400" cy="400" stroke-width="13" stroke-dasharray="637 1935" transform="rotate(150, 400, 400)" stroke-dashoffset="56" opacity="0.45"></circle><circle r="269.5" cx="400" cy="400" stroke-width="13" stroke-dasharray="669 1693" transform="rotate(180, 400, 400)" stroke-dashoffset="56" opacity="0.53"></circle><circle r="231" cx="400" cy="400" stroke-width="13" stroke-dasharray="669 1451" transform="rotate(210, 400, 400)" stroke-dashoffset="56" opacity="0.60"></circle><circle r="192.5" cx="400" cy="400" stroke-width="13" stroke-dasharray="637 1210" transform="rotate(240, 400, 400)" stroke-dashoffset="56" opacity="0.68"></circle><circle r="154" cx="400" cy="400" stroke-width="13" stroke-dasharray="573 968" transform="rotate(270, 400, 400)" stroke-dashoffset="56" opacity="0.76"></circle><circle r="115.5" cx="400" cy="400" stroke-width="13" stroke-dasharray="478 726" transform="rotate(300, 400, 400)" stroke-dashoffset="56" opacity="0.84"></circle><circle r="77" cx="400" cy="400" stroke-width="13" stroke-dasharray="350 484" transform="rotate(330, 400, 400)" stroke-dashoffset="56" opacity="0.92"></circle><circle r="38.5" cx="400" cy="400" stroke-width="13" stroke-dasharray="191 242" transform="rotate(360, 400, 400)" stroke-dashoffset="56" opacity="1.00"></circle></g></svg>