<svg xmlns="http://www.w3.org/2000/svg" version="1.1" xmlns:xlink="http://www.w3.org/1999/xlink" xmlns:svgjs="http://svgjs.dev/svgjs" viewBox="0 0 800 800"><rect width="100%" height="100%" fill="hsl(0, 0%, 0%)"></rect><g fill="hsl(55, 64%, 48%)"><rect width="1260" height="2" x="-168" y="251" rx="1" transform="rotate(345, 462, 252)" opacity="0.28"></rect><rect width="332" height="2" x="130" y="116" rx="1" transform="rotate(345, 296, 117)" opacity="0.87"></rect><rect width="1114" height="2" x="-455" y="712" rx="1" transform="rotate(345, 102, 713)" opacity="0.37"></rect><rect width="588" height="2" x="2" y="414" rx="1" transform="rotate(345, 296, 415)" opacity="0.78"></rect><rect width="817" height="2" x="235.5" y="453" rx="1" transform="rotate(345, 644, 454)" opacity="0.56"></rect><rect width="1056" height="2" x="85" y="677" rx="1" transform="rotate(345, 613, 678)" opacity="0.67"></rect><rect width="442" height="2" x="-132" y="484" rx="1" transform="rotate(345, 89, 485)" opacity="0.92"></rect><rect width="1037" height="2" x="-195.5" y="664" rx="1" transform="rotate(345, 323, 665)" opacity="0.59"></rect><rect width="721" height="2" x="352.5" y="240" rx="1" transform="rotate(345, 713, 241)" opacity="0.97"></rect><rect width="301" height="2" x="-57.5" y="165" rx="1" transform="rotate(345, 93, 166)" opacity="0.34"></rect><rect width="167" height="2" x="536.5" y="76" rx="1" transform="rotate(345, 620, 77)" opacity="0.62"></rect></g></svg>